#!OML:ASF Y:\EmotionMaleHayes\Project 1\Capture day 1\Session 1\Male1.ASF
:FULLY-SPECIFIED
:DEGREES
1022
root 15.4343 15.8593 16.4947 188.435 -24.8452 -193.196
lowerback 11.906 2.48284 -7.32123
upperback 5.72615 1.81021 -2.89424
thorax -0.811739 0.535426 0.870185
lowerneck -21.637 -3.12893 -0.41913
upperneck 26.8692 -8.44799 9.40664
head 13.1311 -2.84052 2.14265
rclavicle -3.71727e-014 -1.39149e-014
rhumerus -27.0115 32.6787 -95.2495
rradius 79.3234
rwrist -17.9066
rhand -22.1367 -31.6393
rfingers 7.12502
rthumb 4.27673 -61.5761
lclavicle -3.71727e-014 -1.39149e-014
lhumerus -51.8573 -12.6976 90.853
lradius 52.5336
lwrist 14.6058
lhand -33.9141 -21.1237
lfingers 7.12502
lthumb -7.09662 8.73736
rfemur -9.25104 21.1174 24.9855
rtibia 47.1593
rfoot -24.7756 6.48775
rtoes 30.4684
lfemur -3.86909 -0.336722 -10.5441
ltibia 20.0579
lfoot -16.9665 2.08868
ltoes -50.1549
1023
root 15.304 15.8501 16.4826 189.543 -22.9169 -193.529
lowerback 11.0606 2.56518 -8.37553
upperback 5.646 1.90169 -2.91899
thorax -0.468508 0.554602 1.43787
lowerneck -20.1814 -3.25193 -3.03615
upperneck 24.604 -8.39857 12.6545
head 12.226 -2.80512 3.81382
rclavicle -5.18828e-014 -1.59028e-015
rhumerus -26.4511 33.0244 -95.2551
rradius 81.2327
rwrist -18.4956
rhand -21.7684 -29.9146
rfingers 7.12502
rthumb 4.63244 -59.8439
lclavicle -5.18828e-014 -1.59028e-015
lhumerus -51.5557 -11.9927 91.1838
lradius 52.1302
lwrist 15.6186
lhand -33.9993 -21.2622
lfingers 7.12502
lthumb -7.17885 8.59603
rfemur -12.2092 21.104 23.0115
rtibia 50.3222
rfoot -23.3541 8.24548
rtoes 31.5753
lfemur -3.93327 0.176852 -11.6604
ltibia 19.5638
lfoot -17.8618 2.77366
ltoes -47.6985
1024
root 15.1745 15.8598 16.4663 190.349 -21.2322 -193.921
lowerback 10.6697 2.5823 -9.38688
upperback 5.60636 1.85523 -2.9751
thorax -0.314554 0.501233 1.95253
lowerneck -22.5207 -2.46484 0.0788773
upperneck 27.0642 -7.28629 8.34615
head 13.2375 -2.36196 1.85636
rclavicle -3.20043e-014 -3.97569e-015
rhumerus -26.2263 33.3331 -95.4557
rradius 82.8699
rwrist -18.8383
rhand -22.4421 -31.0514
rfingers 7.12502
rthumb 3.9819 -60.9939
lclavicle -3.20043e-014 -3.97569e-015
lhumerus -50.965 -11.3049 91.3387
lradius 51.5198
lwrist 16.1128
lhand -34.3489 -21.8592
lfingers 7.12502
lthumb -7.51632 7.98728
rfemur -14.9981 20.5998 21.0758
rtibia 53.5285
rfoot -21.0459 9.78007
rtoes 31.7121
lfemur -4.03829 0.321787 -12.981
ltibia 19.6841
lfoot -18.8575 4.6809
ltoes -49.279
1025
root 15.0434 15.8799 16.4442 190.605 -19.6845 -194.206
lowerback 10.8417 2.60012 -10.0558
upperback 5.62206 1.74884 -3.14086
thorax -0.390904 0.421908 2.15564
lowerneck -22.6598 -2.30584 0.335821
upperneck 26.9116 -7.02694 8.07429
head 13.1649 -2.25325 1.75176
rclavicle 1.39149e-015 9.14409e-015
rhumerus -26.4413 33.3217 -96.1389
rradius 84.1296
rwrist -18.811
rhand -22.8124 -31.0198
rfingers 7.12502
rthumb 3.6243 -60.9687
lclavicle 1.39149e-015 9.14409e-015
lhumerus -49.8897 -10.4627 91.0427
lradius 50.4597
lwrist 15.5279
lhand -34.7728 -22.0168
lfingers 7.12502
lthumb -7.92551 7.81464
rfemur -17.2651 19.7043 19.463
rtibia 56.6449
rfoot -18.1588 11.0116
rtoes 31.3283
lfemur -3.72956 -0.0126962 -14.2578
ltibia 19.9673
lfoot -19.8663 6.33243
ltoes -49.5762
1026
root 14.897 15.9079 16.4256 190.454 -18.8257 -194.196
lowerback 11.4864 2.41503 -9.78612
upperback 5.65425 1.3994 -3.36452
thorax -0.663255 0.248069 1.80218
lowerneck -22.509 -2.15626 0.556003
upperneck 26.6146 -6.84835 8.06921
head 12.9959 -2.16738 1.74148
rclavicle 3.67752e-014 1.98785e-014
rhumerus -26.9288 32.7021 -97.1792
rradius 84.8503
rwrist -18.487
rhand -22.8625 -30.9952
rfingers 7.12502
rthumb 3.57589 -60.9449
lclavicle 3.67752e-014 1.98785e-014
lhumerus -48.7327 -10.0521 90.705
lradius 49.2617
lwrist 14.3961
lhand -35.0379 -22.1018
lfingers 7.12502
lthumb -8.18138 7.71986
rfemur -19.1182 17.839 18.3295
rtibia 59.3789
rfoot -14.9647 12.0205
rtoes 30.8318
lfemur -3.06372 -1.48615 -15.0828
ltibia 19.878
lfoot -21.6324 4.38055
ltoes -38.9397
1027
root 14.7828 15.9371 16.3915 190.238 -17.4421 -194.008
lowerback 12.074 2.52991 -9.91916
upperback 5.61905 1.41433 -3.4908
thorax -1.02218 0.253941 1.72892
lowerneck -22.3096 -2.02091 0.542058
upperneck 26.3036 -6.71124 8.37133
head 12.8385 -2.08837 1.88102
rclavicle -4.1546e-014 7.15625e-015
rhumerus -28.2721 32.532 -97.9692
rradius 85.8028
rwrist -18.8838
rhand -23.2975 -31.0527
rfingers 7.12502
rthumb 3.15584 -61.0091
lclavicle -4.1546e-014 7.15625e-015
lhumerus -47.4504 -10.5522 90.7137
lradius 47.7701
lwrist 13.9642
lhand -35.4654 -23.24
lfingers 7.12502
lthumb -8.59391 6.56507
rfemur -21.0142 16.5191 17.5965
rtibia 61.89
rfoot -11.5697 13.0361
rtoes 31.1258
lfemur -2.16704 -0.48498 -15.5108
ltibia 19.5405
lfoot -21.7825 6.23967
ltoes -44.3203
1028
root 14.6612 15.9736 16.3503 190.203 -16.3785 -194.647
lowerback 12.6837 2.59276 -10.7018
upperback 5.64359 1.24662 -3.7428
thorax -1.31732 0.142726 1.90565
lowerneck -22.5782 -1.83626 0.85115
upperneck 26.6041 -6.51705 8.05478
head 12.9811 -1.99941 1.74341
rclavicle -2.47487e-014 9.38264e-014
rhumerus -29.4282 32.094 -98.547
rradius 86.1231
rwrist -19.4959
rhand -23.5007 -30.9686
rfingers 7.12502
rthumb 2.95959 -60.9278
lclavicle -2.47487e-014 9.38264e-014
lhumerus -46.0956 -12.0718 91.1045
lradius 46.4102
lwrist 14.7194
lhand -35.7576 -23.987
lfingers 7.12502
lthumb -8.87586 5.80636
rfemur -22.643 14.7693 15.9468
rtibia 64.054
rfoot -8.26061 14.1459
rtoes 32.8555
lfemur -1.21895 0.0875065 -16.8229
ltibia 19.069
lfoot -22.0384 6.82665
ltoes -45.5314
1029
root 14.5547 16.0071 16.2922 190.332 -15.1757 -195.743
lowerback 12.9911 2.69399 -12.331
upperback 5.69457 1.04481 -3.9752
thorax -1.42012 -0.0140049 2.57622
lowerneck -22.7806 -1.61665 1.03556
upperneck 26.887 -6.21431 7.73022
head 13.1025 -1.87894 1.64339
rclavicle 5.58585e-014 1.19271e-014
rhumerus -30.6022 31.7896 -98.9993
rradius 85.9161
rwrist -20.0386
rhand -23.2815 -30.9518
rfingers 7.12502
rthumb 3.17122 -60.908
lclavicle 5.58585e-014 1.19271e-014
lhumerus -44.5502 -12.3137 90.7658
lradius 45.3785
lwrist 13.8979
lhand -35.0793 -23.2716
lfingers 7.12502
lthumb -8.22126 6.54847
rfemur -24.2687 12.706 14.034
rtibia 65.7898
rfoot -6.27599 14.6506
rtoes 28.7097
lfemur -0.194183 1.07887 -18.5075
ltibia 18.3799
lfoot -22.0121 7.30656
ltoes -47.2122
1030
root 14.463 16.045 16.2318 190.521 -14.3839 -196.078
lowerback 13.0971 2.5699 -13.2503
upperback 5.67209 0.711694 -3.99374
thorax -1.45956 -0.203729 3.10594
lowerneck -22.7641 -1.35802 1.20025
upperneck 26.9846 -5.84726 7.50138
head 13.1072 -1.73226 1.59362
rclavicle 2.29596e-014 7.65321e-014
rhumerus -31.8533 31.5558 -99.4884
rradius 85.2706
rwrist -20.2508
rhand -23.1638 -31.335
rfingers 7.12502
rthumb 3.28494 -61.2895
lclavicle 2.29596e-014 7.65321e-014
lhumerus -42.8111 -11.9044 90.0183
lradius 44.3047
lwrist 12.5878
lhand -34.0947 -22.5998
lfingers 7.12502
lthumb -7.27094 7.25527
rfemur -26.0612 10.5862 13.1634
rtibia 67.3831
rfoot -5.42807 14.7998
rtoes 25.1139
lfemur 0.522871 1.92122 -19.1597
ltibia 17.5103
lfoot -21.6212 8.01377
ltoes -49.8454
1031
root 14.3489 16.0854 16.1638 190.733 -13.6447 -196.559
lowerback 13.0377 2.45425 -13.7892
upperback 5.69494 0.454761 -4.18852
thorax -1.3646 -0.361667 3.23023
lowerneck -22.7396 -1.1831 1.28908
upperneck 27.092 -5.65477 7.47877
head 13.1353 -1.64588 1.60479
rclavicle -1.27222e-014 3.83654e-014
rhumerus -33.1827 30.8836 -99.8786
rradius 84.3083
rwrist -20.3357
rhand -23.1683 -31.8624
rfingers 7.12502
rthumb 3.28058 -61.817
lclavicle -1.27222e-014 3.83654e-014
lhumerus -41.0569 -12.2686 89.4926
lradius 43.5758
lwrist 12.5882
lhand -33.2303 -22.4981
lfingers 7.12502
lthumb -6.4365 7.38406
rfemur -27.563 8.17697 12.2108
rtibia 68.4453
rfoot -5.86521 14.7324
rtoes 20.3689
lfemur 1.58591 2.24664 -20.1874
ltibia 16.0532
lfoot -21.4707 7.79352
ltoes -49.4649
1032
root 14.234 16.1261 16.0919 190.757 -12.9095 -196.632
lowerback 13.0396 2.33178 -13.8494
upperback 5.71223 0.260233 -4.28789
thorax -1.31854 -0.470941 3.18554
lowerneck -22.9091 -1.04583 1.21817
upperneck 27.4065 -5.51876 7.52244
head 13.2987 -1.58314 1.66134
rclavicle 1.15295e-014 1.11319e-013
rhumerus -34.6934 30.1617 -100.1
rradius 83.1786
rwrist -20.4312
rhand -23.0464 -32.5449
rfingers 7.12502
rthumb 3.39831 -62.4975
lclavicle 1.15295e-014 1.11319e-013
lhumerus -39.4145 -13.0271 89.1018
lradius 43.1867
lwrist 12.8965
lhand -32.6286 -22.6492
lfingers 7.12502
lthumb -5.85567 7.24987
rfemur -28.9163 5.89928 11.9169
rtibia 69.1641
rfoot -7.13025 14.3003
rtoes 15.7463
lfemur 2.86135 2.26767 -20.7913
ltibia 14.3575
lfoot -21.4388 7.40505
ltoes -47.3663
1033
root 14.126 16.1678 16.0096 190.771 -12.1488 -196.721
lowerback 12.9963 2.21035 -14.13
upperback 5.73257 0.0486314 -4.34381
thorax -1.23943 -0.595179 3.30848
lowerneck -23.1059 -0.831608 1.20814
upperneck 27.7541 -5.25339 7.44623
head 13.4699 -1.47138 1.68576
rclavicle -4.55217e-014 2.5842e-014
rhumerus -36.1655 29.5935 -100.172
rradius 81.7205
rwrist -20.3838
rhand -22.9844 -33.175
rfingers 7.12502
rthumb 3.45816 -63.1267
lclavicle -4.55217e-014 2.5842e-014
lhumerus -37.6536 -13.3863 88.4838
lradius 42.8761
lwrist 12.2436
lhand -31.9786 -22.2613
lfingers 7.12502
lthumb -5.2281 7.65425
rfemur -30.1622 3.94747 11.6921
rtibia 69.5449
rfoot -8.00196 13.634
rtoes 15.81
lfemur 4.18504 2.03955 -21.5308
ltibia 12.6278
lfoot -21.2134 7.93276
ltoes -46.8483
1034
root 14.0213 16.2087 15.9231 190.83 -11.2875 -197.053
lowerback 12.9296 2.1926 -14.7459
upperback 5.74657 -0.075125 -4.41664
thorax -1.16291 -0.685837 3.58129
lowerneck -23.2812 -0.596897 1.20565
upperneck 28.1025 -4.94511 7.33655
head 13.635 -1.34556 1.70458
rclavicle 3.06128e-014 1.21259e-014
rhumerus -37.6441 29.001 -99.9875
rradius 80.0187
rwrist -20.4387
rhand -23.1894 -33.5531
rfingers 7.12502
rthumb 3.26021 -63.5079
lclavicle 3.06128e-014 1.21259e-014
lhumerus -35.6899 -13.4039 87.7625
lradius 42.6797
lwrist 11.37
lhand -31.3484 -21.9716
lfingers 7.12502
lthumb -4.61953 7.95808
rfemur -31.354 2.40308 11.1739
rtibia 69.6939
rfoot -8.5046 12.9017
rtoes 18.8401
lfemur 5.42854 2.14261 -22.5097
ltibia 11.054
lfoot -21.028 8.21367
ltoes -46.2304
1035
root 13.9057 16.2468 15.8317 190.708 -10.3583 -197.001
lowerback 12.8769 2.18949 -14.7037
upperback 5.76846 -0.0867045 -4.5087
thorax -1.11211 -0.703442 3.46165
lowerneck -23.5332 -0.340276 1.32305
upperneck 28.6101 -4.65159 7.1346
head 13.8817 -1.22414 1.66647
rclavicle -3.23025e-014 -6.11263e-014
rhumerus -39.2052 28.3244 -99.7359
rradius 78.2028
rwrist -20.5061
rhand -23.3846 -33.9781
rfingers 7.12502
rthumb 3.07167 -63.9357
lclavicle -3.23025e-014 -6.11263e-014
lhumerus -33.902 -14.1601 87.2489
lradius 42.8976
lwrist 11.7593
lhand -31.6784 -22.4854
lfingers 7.12502
lthumb -4.93818 7.43706
rfemur -32.4149 1.04344 11.0835
rtibia 69.4824
rfoot -9.25318 12.1208
rtoes 19.8191
lfemur 6.8162 2.41748 -23.1161
ltibia 9.48768
lfoot -20.8644 8.73292
ltoes -45.8527
